<svg xmlns="http://www.w3.org/2000/svg" viewBox="0 0 100 100" width="100" height="100">
    <!-- Hexagonal background with rounded corners -->
    <path d="M25 15 L75 15 Q85 15 90 25 L90 40 L95 50 L90 60 L90 75 Q90 85 80 85 L75 85 L25 85 Q15 85 10 75 L10 60 L5 50 L10 40 L10 25 Q10 15 20 15 Z"
          fill="#1DB584"
          stroke="none"/>

    <!-- Simplified hexagon for cleaner look -->
    <path d="M20 25 L80 25 L90 50 L80 75 L20 75 L10 50 Z"
          fill="#1DB584"
          stroke="none"/>

    <!-- Bold arrow pointing right -->
    <path d="M25 50 L65 50 M55 35 L70 50 L55 65"
          stroke="white"
          stroke-width="8"
          fill="none"
          stroke-linecap="round"
          stroke-linejoin="round"/>
</svg>